<?xml version="1.0" encoding="UTF-8" standalone="no"?>
<svg
   id="Ebene_1"
   version="1.1"
   viewBox="0 0 479.05 204.36"
   sodipodi:docname="schrittmacher-logo_2.svg"
   inkscape:version="1.4.2 (ebf0e940d0, 2025-05-08)"
   xmlns:inkscape="http://www.inkscape.org/namespaces/inkscape"
   xmlns:sodipodi="http://sodipodi.sourceforge.net/DTD/sodipodi-0.dtd"
   xmlns="http://www.w3.org/2000/svg"
   xmlns:svg="http://www.w3.org/2000/svg">
  <sodipodi:namedview
     id="namedview13"
     pagecolor="#ffffff"
     bordercolor="#000000"
     borderopacity="0.25"
     inkscape:showpageshadow="2"
     inkscape:pageopacity="0.0"
     inkscape:pagecheckerboard="0"
     inkscape:deskcolor="#d1d1d1"
     inkscape:zoom="1.7910448"
     inkscape:cx="239.52499"
     inkscape:cy="102.45416"
     inkscape:window-width="1606"
     inkscape:window-height="1083"
     inkscape:window-x="487"
     inkscape:window-y="177"
     inkscape:window-maximized="0"
     inkscape:current-layer="Ebene_1" />
  <!-- Generator: Adobe Illustrator 29.8.0, SVG Export Plug-In . SVG Version: 2.1.1 Build 160)  -->
  <defs
     id="defs1">
    <style
       id="style1">
      .st0 {
        fill: #fff;
      }
    </style>
  </defs>
  <path
     class="st0"
     d="M36.45,95.57c-17.35,0-29.46-12.16-29.46-29.58v-1.5h16.08v1.5c0,7.97,5.75,13.98,13.38,13.98,8,0,13.38-4.85,13.38-12.06,0-6.33-3.7-9.71-13.66-12.47l-3.69-.95c-14.37-3.96-21.64-12.44-21.64-25.21,0-14.24,10.44-24.18,25.38-24.18,16.06,0,24.9,8.97,24.9,25.26v1.5h-15.96v-1.5c0-6.05-3.34-9.66-8.94-9.66s-9.42,3.53-9.42,8.58c0,4.52,1.57,7.41,9.82,9.71l3.95,1.08c15.36,4.2,25.59,10.54,25.59,27.85,0,16.03-12.49,27.66-29.7,27.66Z"
     id="path1"
     style="fill:#260073;fill-opacity:1" />
  <path
     class="st0"
     d="M120.57,95.69c-26.25,0-45.3-19.05-45.3-45.3S94.32,5.09,120.57,5.09c11.99,0,23.09,4.15,31.25,11.68l1.13,1.04-11.69,12.13-1.08-1.01c-5.36-5-12.14-7.64-19.62-7.64-16.18,0-28.38,12.51-28.38,29.1s12.2,29.1,28.38,29.1c7.68,0,14.81-2.83,20.07-7.97l1.05-1.02,12.11,11.82-1.11,1.07c-8.3,8.05-19.41,12.3-32.12,12.3Z"
     id="path2"
     style="fill:#260073;fill-opacity:1" />
  <path
     class="st0"
     d="M220.71,93.89h-16.56v-36.36h-23.16v36.36h-16.68V6.89h16.68v35.16h23.16V6.89h16.56v87Z"
     id="path3"
     style="fill:#260073;fill-opacity:1" />
  <path
     class="st0"
     d="M298.02,93.89h-19.54l-20.8-35.03v35.03h-16.68V6.89h27.18c16.26,0,27.18,10.44,27.18,25.98,0,12.95-7.81,21.69-21.04,23.76l23.71,37.26ZM257.67,42.77h9.66c6.62,0,10.74-3.79,10.74-9.9s-4.12-9.9-10.74-9.9h-9.66v19.8Z"
     id="path4"
     style="fill:#260073;fill-opacity:1" />
  <path
     class="st0"
     d="M328.95,93.89h-16.68V6.89h16.68v87Z"
     id="path5"
     style="fill:#260073;fill-opacity:1" />
  <path
     class="st0"
     d="M381.39,93.89h-16.68V22.49h-22.44V6.89h61.44v15.6h-22.32v71.4Z"
     id="path6"
     style="fill:#260073;fill-opacity:1" />
  <path
     class="st0"
     d="M449.43,93.89h-16.68V22.49h-22.44V6.89h61.44v15.6h-22.32v71.4Z"
     id="path7"
     style="fill:#260073;fill-opacity:1" />
  <path
     class="st0"
     d="M88.65,197.89h-16.68v-57.59l-22.11,29.52-23.12-29.67v57.73H10.05v-87h15.93l23.83,31.73,22.9-31.73h15.95v87Z"
     id="path8"
     style="fill:#260073;fill-opacity:1" />
  <path
     class="st0"
     d="M177.71,197.89h-17.06l-34.26-28.01-9.61,28.01h-17.85l31.69-87h16.39l30.7,87ZM131.87,154.37l18.53,14.92-11.78-34.3-6.75,19.38Z"
     id="path9"
     style="fill:#260073;fill-opacity:1" />
  <path
     class="st0"
     d="M225.86,199.69c-26.25,0-45.3-19.05-45.3-45.3s19.05-45.3,45.3-45.3c11.99,0,23.09,4.15,31.26,11.68l1.13,1.04-11.69,12.12-1.08-1c-5.36-5-12.15-7.64-19.62-7.64-16.18,0-28.38,12.51-28.38,29.1s12.2,29.1,28.38,29.1c7.68,0,14.81-2.83,20.07-7.97l1.05-1.02,12.11,11.82-1.11,1.07c-8.3,8.05-19.41,12.3-32.12,12.3Z"
     id="path10"
     style="fill:#260073;fill-opacity:1" />
  <path
     class="st0"
     d="M328.17,197.89h-16.56v-36.36h-23.16v36.36h-16.68v-87h16.68v35.16h23.16v-35.16h16.56v87Z"
     id="path11"
     style="fill:#260073;fill-opacity:1" />
  <path
     class="st0"
     d="M393.68,197.89h-45v-87h45v15.6h-28.32v12.48h28.32v15.6h-28.32v27.84h28.32v15.48Z"
     id="path12"
     style="fill:#260073;fill-opacity:1" />
  <path
     class="st0"
     d="M468.47,197.89h-19.54l-20.8-35.03v35.03h-16.68v-87h27.18c16.26,0,27.18,10.44,27.18,25.98,0,12.95-7.81,21.69-21.04,23.76l23.71,37.26ZM428.12,146.77h9.66c6.62,0,10.74-3.79,10.74-9.9s-4.12-9.9-10.74-9.9h-9.66v19.8Z"
     id="path13"
     style="fill:#260073;fill-opacity:1" />
</svg>
