<?xml version="1.0" encoding="UTF-8" standalone="no"?>
<svg
   id="Ebene_1"
   version="1.1"
   viewBox="0 0 229488.91 41763.012"
   sodipodi:docname="schrittmacher-logo_2.svg"
   inkscape:version="1.4.2 (ebf0e940d0, 2025-05-08)"
   inkscape:export-filename="schrittmacher-logo_2q.svg"
   inkscape:export-xdpi="96"
   inkscape:export-ydpi="96"
   width="229488.91"
   height="41763.012"
   xmlns:inkscape="http://www.inkscape.org/namespaces/inkscape"
   xmlns:sodipodi="http://sodipodi.sourceforge.net/DTD/sodipodi-0.dtd"
   xmlns="http://www.w3.org/2000/svg"
   xmlns:svg="http://www.w3.org/2000/svg">
  <sodipodi:namedview
     id="namedview13"
     pagecolor="#ffffff"
     bordercolor="#000000"
     borderopacity="0.25"
     inkscape:showpageshadow="2"
     inkscape:pageopacity="0.0"
     inkscape:pagecheckerboard="0"
     inkscape:deskcolor="#d1d1d1"
     inkscape:zoom="1.7910448"
     inkscape:cx="239.52499"
     inkscape:cy="102.45416"
     inkscape:window-width="1606"
     inkscape:window-height="1083"
     inkscape:window-x="487"
     inkscape:window-y="177"
     inkscape:window-maximized="0"
     inkscape:current-layer="Ebene_1">
    <inkscape:page
       x="0"
       y="0"
       width="229488.91"
       height="41763.012"
       id="page2"
       margin="0"
       bleed="0" />
  </sodipodi:namedview>
  <!-- Generator: Adobe Illustrator 29.8.0, SVG Export Plug-In . SVG Version: 2.1.1 Build 160)  -->
  <defs
     id="defs1">
    <style
       id="style1">
      .st0 {
        fill: #fff;
      }
    </style>
  </defs>
  <path
     class="st0"
     d="M 36.45,95.57 C 19.1,95.57 6.99,83.41 6.99,65.99 v -1.5 h 16.08 v 1.5 c 0,7.97 5.75,13.98 13.38,13.98 8,0 13.38,-4.85 13.38,-12.06 0,-6.33 -3.7,-9.71 -13.66,-12.47 L 32.48,54.49 C 18.11,50.53 10.84,42.05 10.84,29.28 10.84,15.04 21.28,5.1 36.22,5.1 c 16.06,0 24.9,8.97 24.9,25.26 v 1.5 H 45.16 v -1.5 c 0,-6.05 -3.34,-9.66 -8.94,-9.66 -5.6,0 -9.42,3.53 -9.42,8.58 0,4.52 1.57,7.41 9.82,9.71 l 3.95,1.08 c 15.36,4.2 25.59,10.54 25.59,27.85 0,16.03 -12.49,27.66 -29.7,27.66 z"
     id="path1"
     style="fill:#260073;fill-opacity:1" />
  <path
     class="st0"
     d="m 120.57,95.69 c -26.25,0 -45.3,-19.05 -45.3,-45.3 0,-26.25 19.05,-45.3 45.3,-45.3 11.99,0 23.09,4.15 31.25,11.68 l 1.13,1.04 -11.69,12.13 -1.08,-1.01 c -5.36,-5 -12.14,-7.64 -19.62,-7.64 -16.18,0 -28.38,12.51 -28.38,29.1 0,16.59 12.2,29.1 28.38,29.1 7.68,0 14.81,-2.83 20.07,-7.97 l 1.05,-1.02 12.11,11.82 -1.11,1.07 c -8.3,8.05 -19.41,12.3 -32.12,12.3 z"
     id="path2"
     style="fill:#260073;fill-opacity:1" />
  <path
     class="st0"
     d="M 220.71,93.89 H 204.15 V 57.53 h -23.16 v 36.36 h -16.68 v -87 h 16.68 v 35.16 h 23.16 V 6.89 h 16.56 z"
     id="path3"
     style="fill:#260073;fill-opacity:1" />
  <path
     class="st0"
     d="M 298.02,93.89 H 278.48 L 257.68,58.86 V 93.89 H 241 v -87 h 27.18 c 16.26,0 27.18,10.44 27.18,25.98 0,12.95 -7.81,21.69 -21.04,23.76 l 23.71,37.26 z M 257.67,42.77 h 9.66 c 6.62,0 10.74,-3.79 10.74,-9.9 0,-6.11 -4.12,-9.9 -10.74,-9.9 h -9.66 z"
     id="path4"
     style="fill:#260073;fill-opacity:1" />
  <path
     class="st0"
     d="m 328.95,93.89 h -16.68 v -87 h 16.68 z"
     id="path5"
     style="fill:#260073;fill-opacity:1" />
  <path
     class="st0"
     d="M 381.39,93.89 H 364.71 V 22.49 H 342.27 V 6.89 h 61.44 v 15.6 h -22.32 z"
     id="path6"
     style="fill:#260073;fill-opacity:1" />
  <path
     class="st0"
     d="M 449.43,93.89 H 432.75 V 22.49 H 410.31 V 6.89 h 61.44 v 15.6 h -22.32 z"
     id="path7"
     style="fill:#260073;fill-opacity:1" />
  <path
     class="st0"
     d="M 88.65,197.89 H 71.97 V 140.3 L 49.86,169.82 26.74,140.15 v 57.73 H 10.05 v -87 h 15.93 l 23.83,31.73 22.9,-31.73 h 15.95 v 87 z"
     id="path8"
     style="fill:#260073;fill-opacity:1" />
  <path
     class="st0"
     d="m 177.71,197.89 h -17.06 l -34.26,-28.01 -9.61,28.01 H 98.93 l 31.69,-87 h 16.39 z m -45.84,-43.52 18.53,14.92 -11.78,-34.3 z"
     id="path9"
     style="fill:#260073;fill-opacity:1" />
  <path
     class="st0"
     d="m 225.86,199.69 c -26.25,0 -45.3,-19.05 -45.3,-45.3 0,-26.25 19.05,-45.3 45.3,-45.3 11.99,0 23.09,4.15 31.26,11.68 l 1.13,1.04 -11.69,12.12 -1.08,-1 c -5.36,-5 -12.15,-7.64 -19.62,-7.64 -16.18,0 -28.38,12.51 -28.38,29.1 0,16.59 12.2,29.1 28.38,29.1 7.68,0 14.81,-2.83 20.07,-7.97 l 1.05,-1.02 12.11,11.82 -1.11,1.07 c -8.3,8.05 -19.41,12.3 -32.12,12.3 z"
     id="path10"
     style="fill:#260073;fill-opacity:1" />
  <path
     class="st0"
     d="m 328.17,197.89 h -16.56 v -36.36 h -23.16 v 36.36 h -16.68 v -87 h 16.68 v 35.16 h 23.16 v -35.16 h 16.56 z"
     id="path11"
     style="fill:#260073;fill-opacity:1" />
  <path
     class="st0"
     d="m 393.68,197.89 h -45 v -87 h 45 v 15.6 h -28.32 v 12.48 h 28.32 v 15.6 h -28.32 v 27.84 h 28.32 z"
     id="path12"
     style="fill:#260073;fill-opacity:1" />
  <path
     class="st0"
     d="m 468.47,197.89 h -19.54 l -20.8,-35.03 v 35.03 h -16.68 v -87 h 27.18 c 16.26,0 27.18,10.44 27.18,25.98 0,12.95 -7.81,21.69 -21.04,23.76 l 23.71,37.26 z m -40.35,-51.12 h 9.66 c 6.62,0 10.74,-3.79 10.74,-9.9 0,-6.11 -4.12,-9.9 -10.74,-9.9 h -9.66 z"
     id="path13"
     style="fill:#260073;fill-opacity:1" />
</svg>
